<mxfile host="app.diagrams.net" agent="Mozilla/5.0 (Windows NT 10.0; Win64; x64) AppleWebKit/537.36 (KHTML, like Gecko) Chrome/138.0.0.0 Safari/537.36" version="28.2.0">
  <diagram name="Page-1" id="mAAHHn8QjDKk08hhS6cb">
    <mxGraphModel dx="524" dy="278" grid="1" gridSize="10" guides="1" tooltips="1" connect="1" arrows="1" fold="1" page="1" pageScale="1" pageWidth="480" pageHeight="270" math="0" shadow="0">
      <root>
        <mxCell id="0" />
        <mxCell id="1" parent="0" />
        <mxCell id="I6mNdygkwJl96-a7Lb6P-1" value="" style="rounded=0;whiteSpace=wrap;html=1;movable=1;resizable=1;rotatable=1;deletable=1;editable=1;locked=0;connectable=1;strokeColor=#333333;fillColor=#333333;" vertex="1" parent="1">
          <mxGeometry width="480" height="270" as="geometry" />
        </mxCell>
        <mxCell id="I6mNdygkwJl96-a7Lb6P-11" style="edgeStyle=orthogonalEdgeStyle;rounded=0;orthogonalLoop=1;jettySize=auto;html=1;strokeColor=#33FF33;" edge="1" parent="1" source="I6mNdygkwJl96-a7Lb6P-2" target="I6mNdygkwJl96-a7Lb6P-3">
          <mxGeometry relative="1" as="geometry" />
        </mxCell>
        <mxCell id="I6mNdygkwJl96-a7Lb6P-12" style="edgeStyle=orthogonalEdgeStyle;rounded=0;orthogonalLoop=1;jettySize=auto;html=1;entryX=0.5;entryY=0;entryDx=0;entryDy=0;strokeColor=#33FF33;" edge="1" parent="1" source="I6mNdygkwJl96-a7Lb6P-2" target="I6mNdygkwJl96-a7Lb6P-5">
          <mxGeometry relative="1" as="geometry" />
        </mxCell>
        <mxCell id="I6mNdygkwJl96-a7Lb6P-2" value="" style="rounded=1;whiteSpace=wrap;html=1;" vertex="1" parent="1">
          <mxGeometry x="190" y="30" width="100" height="30" as="geometry" />
        </mxCell>
        <mxCell id="I6mNdygkwJl96-a7Lb6P-14" style="edgeStyle=orthogonalEdgeStyle;rounded=0;orthogonalLoop=1;jettySize=auto;html=1;entryX=0.5;entryY=0;entryDx=0;entryDy=0;strokeColor=#33FF33;" edge="1" parent="1" source="I6mNdygkwJl96-a7Lb6P-3" target="I6mNdygkwJl96-a7Lb6P-8">
          <mxGeometry relative="1" as="geometry">
            <Array as="points">
              <mxPoint x="120" y="120" />
              <mxPoint x="180" y="120" />
            </Array>
          </mxGeometry>
        </mxCell>
        <mxCell id="I6mNdygkwJl96-a7Lb6P-15" style="edgeStyle=orthogonalEdgeStyle;rounded=0;orthogonalLoop=1;jettySize=auto;html=1;strokeColor=#33FF33;" edge="1" parent="1" source="I6mNdygkwJl96-a7Lb6P-3" target="I6mNdygkwJl96-a7Lb6P-7">
          <mxGeometry relative="1" as="geometry">
            <Array as="points">
              <mxPoint x="120" y="120" />
              <mxPoint x="70" y="120" />
            </Array>
          </mxGeometry>
        </mxCell>
        <mxCell id="I6mNdygkwJl96-a7Lb6P-3" value="&lt;font style=&quot;font-size: 10px;&quot;&gt;Byte Streams&lt;/font&gt;" style="rounded=0;whiteSpace=wrap;html=1;" vertex="1" parent="1">
          <mxGeometry x="70" y="80" width="100" height="30" as="geometry" />
        </mxCell>
        <mxCell id="I6mNdygkwJl96-a7Lb6P-16" style="edgeStyle=orthogonalEdgeStyle;rounded=0;orthogonalLoop=1;jettySize=auto;html=1;entryX=0.5;entryY=0;entryDx=0;entryDy=0;strokeColor=#33FF33;" edge="1" parent="1" source="I6mNdygkwJl96-a7Lb6P-5" target="I6mNdygkwJl96-a7Lb6P-9">
          <mxGeometry relative="1" as="geometry">
            <Array as="points">
              <mxPoint x="370" y="120" />
              <mxPoint x="310" y="120" />
            </Array>
          </mxGeometry>
        </mxCell>
        <mxCell id="I6mNdygkwJl96-a7Lb6P-17" style="edgeStyle=orthogonalEdgeStyle;rounded=0;orthogonalLoop=1;jettySize=auto;html=1;strokeColor=#33FF33;" edge="1" parent="1" source="I6mNdygkwJl96-a7Lb6P-5" target="I6mNdygkwJl96-a7Lb6P-10">
          <mxGeometry relative="1" as="geometry">
            <Array as="points">
              <mxPoint x="370" y="120" />
              <mxPoint x="420" y="120" />
            </Array>
          </mxGeometry>
        </mxCell>
        <mxCell id="I6mNdygkwJl96-a7Lb6P-5" value="&lt;font style=&quot;font-size: 10px;&quot;&gt;Character Streams&lt;/font&gt;" style="rounded=0;whiteSpace=wrap;html=1;" vertex="1" parent="1">
          <mxGeometry x="320" y="80" width="100" height="30" as="geometry" />
        </mxCell>
        <mxCell id="I6mNdygkwJl96-a7Lb6P-7" value="&lt;font style=&quot;font-size: 8px;&quot;&gt;&lt;br&gt;&lt;br&gt;&lt;br&gt;&lt;br&gt;1) FileInputStream&amp;nbsp; &amp;nbsp; &amp;nbsp; &amp;nbsp; &amp;nbsp; &amp;nbsp; &amp;nbsp;&amp;nbsp;&lt;br&gt;2) BufferedInputStream&amp;nbsp; &amp;nbsp; &amp;nbsp;&lt;/font&gt;&lt;div&gt;&lt;font style=&quot;font-size: 8px;&quot;&gt;3) DataInputStream&amp;nbsp; &amp;nbsp; &amp;nbsp; &amp;nbsp; &amp;nbsp; &amp;nbsp;&amp;nbsp;&lt;br&gt;4) ObjectInputStream&amp;nbsp; &amp;nbsp; &amp;nbsp; &amp;nbsp; &amp;nbsp;&lt;br&gt;5) ByteArrayInputStream&amp;nbsp; &amp;nbsp; &amp;nbsp; &amp;nbsp; &amp;nbsp;&amp;nbsp;&lt;br&gt;&lt;br&gt;&lt;/font&gt;&lt;/div&gt;" style="rounded=0;whiteSpace=wrap;html=1;fillColor=#d5e8d4;strokeColor=#82b366;" vertex="1" parent="1">
          <mxGeometry x="20" y="140" width="100" height="110" as="geometry" />
        </mxCell>
        <mxCell id="I6mNdygkwJl96-a7Lb6P-8" value="&lt;font style=&quot;font-size: 8px;&quot;&gt;&lt;br&gt;&lt;br&gt;&lt;br&gt;1) FileOutputStream&amp;nbsp; &amp;nbsp; &amp;nbsp; &amp;nbsp; &amp;nbsp; &amp;nbsp;&lt;br&gt;2) BufferedOutputStream&amp;nbsp; &amp;nbsp;&lt;/font&gt;&lt;div&gt;&lt;font style=&quot;font-size: 8px;&quot;&gt;3) DataOutputStream&amp;nbsp; &amp;nbsp; &amp;nbsp; &amp;nbsp; &amp;nbsp;&lt;br&gt;4) ObjectOutputStream&amp;nbsp; &amp;nbsp; &amp;nbsp; &amp;nbsp;&lt;br&gt;5) ByteArrayOutputStream&amp;nbsp; &amp;nbsp;&amp;nbsp;&lt;/font&gt;&lt;/div&gt;" style="rounded=0;whiteSpace=wrap;html=1;fillColor=#f8cecc;strokeColor=#b85450;" vertex="1" parent="1">
          <mxGeometry x="130" y="140" width="100" height="110" as="geometry" />
        </mxCell>
        <mxCell id="I6mNdygkwJl96-a7Lb6P-9" value="" style="rounded=0;whiteSpace=wrap;html=1;fillColor=#d5e8d4;strokeColor=#82b366;" vertex="1" parent="1">
          <mxGeometry x="260" y="140" width="100" height="110" as="geometry" />
        </mxCell>
        <mxCell id="I6mNdygkwJl96-a7Lb6P-10" value="" style="rounded=0;whiteSpace=wrap;html=1;fillColor=#f8cecc;strokeColor=#b85450;" vertex="1" parent="1">
          <mxGeometry x="370" y="140" width="100" height="110" as="geometry" />
        </mxCell>
        <mxCell id="I6mNdygkwJl96-a7Lb6P-18" value="&lt;b&gt;Java Streams&lt;/b&gt;" style="text;html=1;align=center;verticalAlign=middle;whiteSpace=wrap;rounded=0;" vertex="1" parent="1">
          <mxGeometry x="200" y="30" width="80" height="30" as="geometry" />
        </mxCell>
        <mxCell id="I6mNdygkwJl96-a7Lb6P-20" value="&lt;font style=&quot;font-size: 9px;&quot;&gt;Input&lt;/font&gt;" style="rounded=1;whiteSpace=wrap;html=1;" vertex="1" parent="1">
          <mxGeometry x="37.5" y="150" width="65" height="20" as="geometry" />
        </mxCell>
        <mxCell id="I6mNdygkwJl96-a7Lb6P-21" value="&lt;font style=&quot;font-size: 9px;&quot;&gt;output&lt;/font&gt;" style="rounded=1;whiteSpace=wrap;html=1;" vertex="1" parent="1">
          <mxGeometry x="147.5" y="150" width="65" height="20" as="geometry" />
        </mxCell>
        <mxCell id="I6mNdygkwJl96-a7Lb6P-22" value="&lt;font style=&quot;font-size: 9px;&quot;&gt;reader&lt;/font&gt;" style="rounded=1;whiteSpace=wrap;html=1;" vertex="1" parent="1">
          <mxGeometry x="277.5" y="150" width="65" height="20" as="geometry" />
        </mxCell>
        <mxCell id="I6mNdygkwJl96-a7Lb6P-23" value="&lt;font style=&quot;font-size: 9px;&quot;&gt;writer&lt;/font&gt;" style="rounded=1;whiteSpace=wrap;html=1;" vertex="1" parent="1">
          <mxGeometry x="387.5" y="150" width="65" height="20" as="geometry" />
        </mxCell>
      </root>
    </mxGraphModel>
  </diagram>
</mxfile>
